<?xml version="1.0" standalone="no"?>
<!DOCTYPE svg PUBLIC "-//W3C//DTD SVG 20010904//EN"
 "http://www.w3.org/TR/2001/REC-SVG-20010904/DTD/svg10.dtd">
<svg version="1.0" xmlns="http://www.w3.org/2000/svg"
 width="490.000000pt" height="331.000000pt" viewBox="0 0 490.000000 331.000000"
 preserveAspectRatio="xMidYMid meet">

<g transform="translate(0.000000,331.000000) scale(0.100000,-0.100000)"
fill="#000000" stroke="none">
<path d="M0 1655 l0 -1655 2450 0 2450 0 0 1655 0 1655 -2450 0 -2450 0 0
-1655z m1633 410 c42 -9 58 -17 68 -37 7 -14 11 -112 11 -289 0 -150 4 -272 9
-275 5 -3 7 -9 4 -14 -3 -5 -1 -12 5 -15 6 -4 10 -3 9 2 -1 4 0 15 4 23 27 70
99 361 96 387 -1 10 1 26 6 36 6 15 22 17 144 16 75 0 162 1 194 4 59 4 117
-9 139 -31 17 -17 39 -15 73 8 24 16 47 20 108 20 92 0 140 -18 168 -64 23
-38 23 -65 0 -181 -25 -123 -15 -136 35 -44 43 77 70 89 206 89 83 0 119 4
134 14 14 11 16 18 8 26 -15 15 -35 18 -126 19 -66 1 -80 4 -98 23 -26 28 -26
82 0 108 21 21 20 21 252 21 168 0 209 -24 210 -121 1 -44 -31 -207 -78 -405
-3 -11 -8 -46 -11 -77 -6 -58 -15 -72 -27 -42 -6 16 -3 31 63 341 21 100 36
193 34 207 -3 13 -16 35 -30 48 -22 21 -35 23 -144 27 -78 2 -119 0 -119 -7 0
-6 4 -13 10 -17 5 -3 6 -13 3 -21 -5 -13 -1 -15 15 -10 19 7 21 5 13 -16 -4
-13 -16 -24 -25 -26 -11 -3 -14 1 -9 14 9 24 -23 47 -47 32 -9 -6 -25 -8 -35
-4 -15 5 -15 9 -4 22 7 9 22 20 34 24 14 6 4 9 -36 9 l-56 1 -6 -42 c-9 -64
-1 -68 127 -68 120 0 136 -6 136 -49 0 -46 -8 -49 -156 -53 -161 -4 -184 -12
-214 -81 -18 -41 -18 -41 3 -52 34 -17 30 -38 -12 -64 -38 -23 -40 -27 -46
-87 -6 -51 -4 -70 11 -101 25 -49 51 -55 67 -14 12 34 15 35 37 21 12 -8 12
-11 -3 -28 -9 -10 -17 -22 -17 -25 0 -4 33 -7 73 -7 83 0 96 8 138 90 17 33
24 40 27 27 2 -10 10 -16 17 -13 8 3 15 -5 18 -22 6 -34 4 -36 -21 -23 -17 9
-22 8 -27 -9 -13 -40 10 -50 109 -50 62 0 86 -3 76 -10 -21 -13 -167 -13 -192
1 -14 8 -32 8 -62 0 -74 -19 -178 -19 -210 -1 -44 24 -67 77 -68 154 -1 36 -5
66 -9 66 -12 0 -49 -126 -49 -166 0 -34 -16 -46 -26 -20 -3 8 18 115 47 238
64 272 65 278 45 317 -23 43 -63 61 -140 61 -83 0 -108 -10 -136 -54 -26 -42
-36 -45 -44 -11 -4 14 -17 32 -31 41 -27 18 -62 15 -57 -5 4 -21 -8 -49 -24
-55 -16 -6 -72 20 -86 39 -5 6 2 18 13 28 l21 17 -25 0 c-39 0 -74 -17 -87
-41 -8 -15 -9 -19 -1 -15 6 4 11 4 11 -1 0 -11 -66 -55 -82 -56 -46 -1 -68 4
-68 19 0 20 25 45 35 36 5 -4 6 0 3 8 -4 12 1 16 21 17 14 1 20 -1 14 -4 -20
-8 -15 -23 7 -23 11 0 23 7 27 16 11 29 -25 44 -104 44 -69 0 -73 -1 -61 -19
9 -15 -2 -70 -60 -301 -53 -211 -68 -288 -61 -302 8 -15 23 -18 100 -18 58 0
88 -4 84 -10 -10 -17 -367 -13 -390 4 -15 11 -21 31 -26 91 -4 49 -11 80 -20
86 -20 13 -174 11 -203 -2 -27 -13 -75 -93 -78 -133 -1 -14 -8 -26 -15 -26
-25 0 -13 52 28 121 l41 69 134 0 134 0 0 -88 c0 -55 4 -92 12 -100 8 -8 44
-12 97 -12 63 1 81 3 69 11 -17 9 -18 38 -18 384 0 205 -3 380 -6 389 -4 11
-19 16 -50 16 -40 0 -44 -2 -35 -18 12 -22 -3 -42 -29 -42 -21 0 -77 28 -86
42 -4 7 -2 8 4 4 7 -4 12 -2 12 3 0 6 -16 11 -35 11 -27 0 -35 -4 -35 -17 0
-10 -88 -169 -196 -353 -222 -380 -233 -400 -227 -417 3 -9 34 -13 106 -13 70
0 97 -3 87 -10 -8 -5 -52 -10 -98 -10 -69 0 -85 3 -102 20 -15 15 -19 27 -14
48 4 15 10 29 14 32 3 3 51 83 106 179 123 217 131 230 214 371 37 63 70 125
74 136 12 38 39 52 111 59 39 4 72 9 74 11 3 3 12 2 20 -2 9 -3 24 -7 34 -9z
m2213 -170 c29 -9 56 -60 56 -105 0 -20 -8 -64 -16 -96 -8 -33 -18 -84 -22
-114 -3 -30 -10 -62 -14 -70 -18 -34 -51 -185 -48 -218 2 -20 -2 -37 -9 -39
-24 -8 -23 40 2 146 15 61 25 120 23 133 -3 20 -8 23 -45 21 -25 -2 -43 2 -43
8 0 6 4 7 10 4 5 -3 21 1 34 10 14 10 34 14 45 10 17 -5 21 4 40 83 37 157 23
205 -64 219 l-39 6 22 -30 c25 -35 17 -48 -31 -57 -20 -3 -35 2 -55 20 -15 14
-22 23 -15 20 6 -4 14 -2 18 4 3 5 -1 10 -10 10 -11 0 -15 5 -11 15 6 18 -7
19 -37 4 -27 -15 -38 -30 -32 -46 10 -28 -74 -47 -115 -26 -35 17 -36 23 -10
54 19 22 20 22 18 4 -2 -14 4 -21 20 -23 12 -2 22 2 22 8 0 8 9 10 23 7 l22
-6 -24 20 c-18 15 -39 19 -95 19 l-73 0 5 -29 c2 -16 -26 -155 -63 -310 -37
-154 -65 -287 -62 -296 5 -12 25 -15 102 -15 62 0 94 -4 90 -10 -3 -5 -44 -10
-91 -10 -96 0 -124 16 -124 71 0 17 25 133 56 257 31 125 60 256 63 292 l6 65
157 0 c86 0 159 3 162 6 6 6 123 -6 152 -16z m-2326 -170 l0 -155 -95 0 -95 0
44 68 c24 37 65 106 91 155 27 48 50 87 52 87 2 0 3 -70 3 -155z m975 84 c4
-5 18 -14 31 -19 14 -6 27 -17 31 -25 7 -19 -33 -66 -51 -59 -7 2 -30 -74 -65
-215 -46 -185 -53 -222 -42 -235 10 -12 33 -16 100 -16 59 0 81 -3 71 -10 -17
-11 -139 -13 -165 -4 -10 4 -23 20 -29 35 -10 24 -5 56 37 224 39 156 46 199
37 210 -13 16 -57 20 -77 7 -21 -13 -43 -82 -48 -147 -2 -22 -10 -56 -18 -75
-18 -41 -47 -176 -44 -205 2 -17 -3 -20 -33 -17 -42 5 -77 21 -44 22 33 0 50
29 73 119 27 107 27 136 4 126 -28 -10 -31 -11 -31 -1 0 5 -6 12 -12 16 -9 5
-6 10 9 15 13 4 28 1 37 -6 22 -18 30 -4 53 85 11 43 24 83 30 89 15 15 105
21 128 9 12 -7 25 -7 34 -1 7 5 12 9 9 10 -3 0 -13 2 -23 4 -35 7 -60 58 -34
68 19 8 25 8 32 -4z m1193 -61 c19 -19 15 -47 -34 -269 -26 -115 -44 -215 -41
-224 5 -12 25 -15 97 -15 58 0 89 -4 85 -10 -3 -5 -44 -10 -90 -10 -94 0 -115
11 -115 62 0 28 26 156 66 329 25 104 13 131 -51 115 -16 -4 -28 -19 -39 -48
-26 -72 -95 -371 -92 -400 3 -29 -17 -40 -27 -15 -3 7 20 116 52 243 51 207
58 230 81 241 32 16 92 17 108 1z m-1527 -22 c9 -19 1 -65 -40 -241 -29 -120
-50 -224 -47 -232 4 -9 30 -13 98 -13 64 0 88 -3 78 -10 -8 -5 -48 -10 -89
-10 -121 0 -128 16 -85 190 53 218 63 273 53 292 -11 21 -57 24 -81 6 -17 -13
-50 -117 -73 -228 -2 -8 -13 -52 -24 -97 -12 -46 -19 -94 -17 -108 5 -26 -17
-37 -27 -12 -2 6 21 113 52 237 62 250 62 250 149 250 35 0 44 -4 53 -24z
m-820 -188 c11 -17 -1 -38 -20 -38 -9 1 -32 14 -51 31 -19 16 -28 27 -19 24
10 -4 20 -2 23 4 8 12 56 -3 67 -21z m1716 15 c-2 -5 -12 -43 -21 -85 l-17
-78 -84 0 c-75 0 -86 2 -95 21 -15 27 13 113 43 134 22 16 182 23 174 8z
m-546 -184 c35 -24 37 -39 7 -39 -47 0 -68 12 -68 36 0 30 22 31 61 3z"/>
<path d="M1458 1726 c-8 -7 -25 -34 -38 -60 -25 -46 -25 -47 -6 -62 27 -19 42
-18 67 7 15 15 20 31 18 62 -4 69 -14 81 -41 53z"/>
<path d="M2913 1530 c-43 -18 -59 -91 -24 -110 31 -16 79 -12 101 10 22 22 27
79 8 98 -14 14 -53 15 -85 2z"/>
</g>
</svg>
